<svg xmlns="http://www.w3.org/2000/svg" width="17" height="17" viewBox="0 0 17 17">
  <defs>
    <style>
      .cls-1 {
        fill: #12a23d;
      }
    </style>
  </defs>
  <path id="icon-check" class="cls-1" d="M17.563,9.062a8.5,8.5,0,1,1-8.5-8.5A8.5,8.5,0,0,1,17.563,9.062Zm-9.483,4.5,6.306-6.306a.548.548,0,0,0,0-.776l-.776-.776a.548.548,0,0,0-.776,0L7.692,10.849l-2.4-2.4a.548.548,0,0,0-.776,0l-.776.776a.548.548,0,0,0,0,.776L7.3,13.563a.548.548,0,0,0,.776,0Z" transform="translate(-0.563 -0.563)"/>
</svg>
