<svg xmlns="http://www.w3.org/2000/svg" width="28.352" height="28.352" viewBox="0 0 28.352 28.352">
  <path id="icon-dribbble" d="M14.738.563A14.176,14.176,0,1,0,28.914,14.738,14.192,14.192,0,0,0,14.738.563ZM24.111,7.1a12.051,12.051,0,0,1,2.734,7.543,28.3,28.3,0,0,0-8.431-.39c-.329-.8-.639-1.509-1.064-2.379A16.129,16.129,0,0,0,24.111,7.1ZM22.765,5.7a13.671,13.671,0,0,1-6.346,4.374A64.632,64.632,0,0,0,11.9,2.985,12.077,12.077,0,0,1,22.765,5.7ZM9.59,3.8a77.259,77.259,0,0,1,4.489,7A45.164,45.164,0,0,1,2.886,12.277,12.153,12.153,0,0,1,9.59,3.8ZM2.63,14.757c0-.124,0-.247.006-.37A44.665,44.665,0,0,0,15.08,12.664c.347.678.678,1.367.982,2.055A18.755,18.755,0,0,0,5.743,22.853,12.06,12.06,0,0,1,2.63,14.757Zm4.676,9.552c1.265-2.586,4.7-5.923,9.579-7.588A50.331,50.331,0,0,1,19.468,25.9,12.084,12.084,0,0,1,7.306,24.309Zm14.2.485a52.26,52.26,0,0,0-2.352-8.633,17.772,17.772,0,0,1,7.542.518,12.129,12.129,0,0,1-5.19,8.116Z" transform="translate(-0.563 -0.563)" fill="#a2a8ae"/>
</svg>
