<svg xmlns="http://www.w3.org/2000/svg" width="32.924" height="20.641" viewBox="0 0 32.924 20.641">
  <path id="icon-behance" d="M13.261,14.55a4.338,4.338,0,0,0,2.767-4.23c0-4.036-3.007-5.019-6.476-5.019H0V25.559H9.82c3.681,0,7.139-1.766,7.139-5.882a4.881,4.881,0,0,0-3.7-5.127ZM4.453,8.76H8.631c1.606,0,3.052.452,3.052,2.315,0,1.721-1.126,2.412-2.715,2.412H4.453V8.76ZM9.214,22.118H4.453V16.539H9.306c1.961,0,3.2.817,3.2,2.892,0,2.046-1.48,2.687-3.292,2.687ZM29.706,8.36H21.492V6.365h8.214V8.36Zm3.218,10.077c0-4.338-2.538-7.957-7.139-7.957-4.47,0-7.505,3.361-7.505,7.762,0,4.567,2.875,7.7,7.505,7.7,3.5,0,5.773-1.578,6.865-4.933H29.095c-.383,1.252-1.961,1.915-3.184,1.915-2.361,0-3.6-1.383-3.6-3.733H32.89C32.907,18.951,32.924,18.694,32.924,18.437ZM22.315,16.654a3.148,3.148,0,0,1,3.344-3.132c2.023,0,3.041,1.189,3.212,3.132Z" transform="translate(0 -5.302)" fill="#a2a8ae"/>
</svg>
