<svg xmlns="http://www.w3.org/2000/svg" width="25.622" height="25.616" viewBox="0 0 25.622 25.616">
  <path id="icon-instagram" d="M12.809,8.478a6.568,6.568,0,1,0,6.568,6.568A6.557,6.557,0,0,0,12.809,8.478Zm0,10.838a4.27,4.27,0,1,1,4.27-4.27A4.278,4.278,0,0,1,12.809,19.316ZM21.177,8.21a1.532,1.532,0,1,1-1.532-1.532A1.528,1.528,0,0,1,21.177,8.21Zm4.35,1.555A7.581,7.581,0,0,0,23.458,4.4,7.631,7.631,0,0,0,18.09,2.328c-2.115-.12-8.454-.12-10.569,0A7.62,7.62,0,0,0,2.154,4.391,7.606,7.606,0,0,0,.085,9.759c-.12,2.115-.12,8.454,0,10.569a7.581,7.581,0,0,0,2.069,5.367,7.641,7.641,0,0,0,5.367,2.069c2.115.12,8.454.12,10.569,0a7.581,7.581,0,0,0,5.367-2.069,7.631,7.631,0,0,0,2.069-5.367c.12-2.115.12-8.448,0-10.563ZM22.795,22.6a4.323,4.323,0,0,1-2.435,2.435c-1.686.669-5.687.514-7.551.514s-5.87.149-7.551-.514A4.323,4.323,0,0,1,2.823,22.6c-.669-1.686-.514-5.687-.514-7.551S2.16,9.176,2.823,7.5A4.323,4.323,0,0,1,5.258,5.06c1.686-.669,5.687-.514,7.551-.514s5.87-.149,7.551.514A4.323,4.323,0,0,1,22.795,7.5c.669,1.686.514,5.687.514,7.551S23.463,20.916,22.795,22.6Z" transform="translate(0.005 -2.238)" fill="#a2a8ae"/>
</svg>
